# xmcd
#
# Track frame offsets:
#	150
#	22691
#	41800
#	53868
#	72468
#	95924
#	114463
#	145995
#	169754
#	184713
#	203125
#	222147
#	249463
#
# Disc length: 4076 seconds
#
# Revision: 0
# Processed by: cddbd v1.5.2PL0 Copyright (c) Steve Scherf et al.
# Submitted via: dBpowerAMP V4.0
#
DISCID=bd0fea0d
DTITLE=Nico Wayne Toussaint - Blues entre les dents
DYEAR=2009
DGENRE=Blues
TTITLE0=Balade du bois joli
TTITLE1=Pas dire non
TTITLE2=Paris after midnight
TTITLE3=Le temps passe
TTITLE4=Blues entre les dents
TTITLE5=Nobody's fault but mine
TTITLE6=Sophie
TTITLE7=Why do people act like that
TTITLE8=You're gonna make me cry
TTITLE9=Bye bye
TTITLE10=L'amour en plus
TTITLE11=Mon dieu
TTITLE12=DATA
EXTD=
EXTT0=
EXTT1=
EXTT2=
EXTT3=
EXTT4=
EXTT5=
EXTT6=
EXTT7=
EXTT8=
EXTT9=
EXTT10=
EXTT11=
EXTT12=
PLAYORDER=
